<svg xmlns="http://www.w3.org/2000/svg" viewBox="0 0 1200 1600" role="img" aria-labelledby="title desc">
  <title id="title">四枝鉛筆作文營海報佔位圖</title>
  <desc id="desc">活動海報佔位圖，請替換為正式宣傳海報。</desc>
  <rect width="1200" height="1600" rx="72" fill="#fff8ea"/>
  <circle cx="180" cy="180" r="76" fill="#f7cf5f"/>
  <circle cx="1040" cy="242" r="92" fill="#bda7e8"/>
  <circle cx="1010" cy="1390" r="82" fill="#9fd6b1"/>
  <path d="M160 430c210-120 430-130 680-20 92 41 170 43 230 6" fill="none" stroke="#7bbde8" stroke-width="18" stroke-linecap="round" stroke-dasharray="4 42"/>
  <g transform="translate(250 530)">
    <rect width="700" height="540" rx="54" fill="#ffffff" stroke="#f2d7a0" stroke-width="8"/>
    <line x1="116" y1="170" x2="584" y2="170" stroke="#f1b986" stroke-width="16" stroke-linecap="round"/>
    <line x1="116" y1="256" x2="584" y2="256" stroke="#9bcdeb" stroke-width="16" stroke-linecap="round"/>
    <line x1="116" y1="342" x2="470" y2="342" stroke="#c8b7ed" stroke-width="16" stroke-linecap="round"/>
    <path d="M500 410c-2-54 86-58 90-4 4 58-80 96-88 104-8-9-93-45-91-103 2-54 90-53 89 3z" fill="#f49b5f"/>
  </g>
  <g transform="translate(210 1190)">
    <rect x="0" y="0" width="780" height="118" rx="59" fill="#ffffff"/>
    <text x="390" y="75" text-anchor="middle" font-family="Noto Sans TC, Microsoft JhengHei, sans-serif" font-size="48" font-weight="700" fill="#4a3528">四枝鉛筆作文營</text>
  </g>
  <text x="600" y="220" text-anchor="middle" font-family="Noto Sans TC, Microsoft JhengHei, sans-serif" font-size="64" font-weight="800" fill="#4a3528">正式海報待替換</text>
  <text x="600" y="310" text-anchor="middle" font-family="Noto Sans TC, Microsoft JhengHei, sans-serif" font-size="38" fill="#6b5a4d">請替換為正式宣傳海報</text>
</svg>
