<svg xmlns="http://www.w3.org/2000/svg" viewBox="0 0 800 800" role="img" aria-labelledby="title desc">
  <title id="title">報名 QR Code 佔位圖</title>
  <desc id="desc">原始報名 QR Code 尚未提供，請替換為未修改的正式 QR Code 圖檔。</desc>
  <rect width="800" height="800" fill="#ffffff"/>
  <rect x="40" y="40" width="720" height="720" fill="#ffffff" stroke="#111111" stroke-width="16"/>
  <g fill="#111111">
    <rect x="100" y="100" width="170" height="170"/>
    <rect x="530" y="100" width="170" height="170"/>
    <rect x="100" y="530" width="170" height="170"/>
    <rect x="132" y="132" width="106" height="106" fill="#ffffff"/>
    <rect x="562" y="132" width="106" height="106" fill="#ffffff"/>
    <rect x="132" y="562" width="106" height="106" fill="#ffffff"/>
    <rect x="164" y="164" width="42" height="42"/>
    <rect x="594" y="164" width="42" height="42"/>
    <rect x="164" y="594" width="42" height="42"/>
    <rect x="340" y="140" width="50" height="50"/>
    <rect x="430" y="210" width="50" height="50"/>
    <rect x="330" y="330" width="60" height="60"/>
    <rect x="450" y="350" width="90" height="50"/>
    <rect x="585" y="430" width="70" height="70"/>
    <rect x="350" y="545" width="60" height="60"/>
    <rect x="470" y="590" width="60" height="60"/>
  </g>
  <rect x="92" y="340" width="616" height="120" rx="20" fill="#ffffff"/>
  <text x="400" y="392" text-anchor="middle" font-family="Noto Sans TC, Microsoft JhengHei, sans-serif" font-size="40" font-weight="800" fill="#111111">QR Code 圖檔待補</text>
  <text x="400" y="438" text-anchor="middle" font-family="Noto Sans TC, Microsoft JhengHei, sans-serif" font-size="24" fill="#111111">請替換為原始報名 QR Code</text>
</svg>
